<svg xmlns="http://www.w3.org/2000/svg" xmlns:xlink="http://www.w3.org/1999/xlink" width="730" height="942.5">
	<defs>
		<path id="a" d="M-1016-313.1h2976.38v2012.6H-1016z"/></defs>
		<clipPath id="b"><use xlink:href="#a" overflow="visible"/></clipPath><path clip-path="url(#b)" fill="#BBF41C" d="M588.372 468.862c-3.146-36.683-34.171-66.015-71.37-66.015-36.34 0-66.605 33.701-98.585 48.305-39.537 18.056-82.869 27.491-126.337 27.493-77.848.003-155.591-31.107-211.808-84.943-1.433-1.372-2.863-2.747-4.267-4.149 20.793 66.064 65.222 122.575 122.108 160.556.014.009.028.018.042.028.675.455 1.362.892 2.04 1.343 26.594 17.452 55.849 30.879 86.649 39.364.23.063.459.124.689.186 1.485.406 2.974.801 4.467 1.184 12.407 3.178 25.051 5.558 37.861 7.078 1.789.212 3.579.393 5.369.574h.001c.08.008.159.017.239.025 2.191.222 4.392.412 6.597.586.391.031.783.07 1.174.098 2.05.155 4.109.279 6.172.391.467.026.936.062 1.404.085 2.467.124 4.942.219 7.424.283.562.014 1.123.013 1.684.024 1.918.039 3.838.07 5.765.073.144 0 .286.006.43.006.709 0 1.413-.022 2.121-.027 1.657-.012 3.315-.025 4.966-.063.841-.02 1.68-.053 2.52-.079 1.704-.053 3.407-.112 5.104-.194.691-.033 1.382-.075 2.073-.112 1.932-.106 3.862-.224 5.784-.367.399-.029.798-.061 1.197-.092 55.019-4.244 108.425-23.197 153.734-55.724 8.531-6.125 16.744-13.012 23.768-20.729h.001c13.698-15.048 22.864-33.259 20.984-55.188"/><path clip-path="url(#b)" fill="#20314E" d="M366.121.534C200.186.534 65.67 135.051 65.67 300.985c0 32.359 5.136 63.513 14.602 92.717 56.217 53.836 133.96 84.946 211.807 84.943 43.469-.002 86.801-9.438 126.338-27.493 31.98-14.604 62.245-48.305 98.585-48.305 37.199 0 68.225 29.333 71.37 66.015 1.88 21.928-7.286 40.14-20.983 55.188 60.901-54.986 99.184-134.552 99.184-223.065C666.572 135.051 532.056.534 366.121.534"/><path clip-path="url(#b)" fill="#17E4FF" d="M552.815 415.534c26.932 17.41 40.735 50.286 31.824 81.242 30.614-74.066-24.472-158.464-105.077-158.443-40.449.012-69.121 27.359-106.712 37.506-39.134 10.563-81.557 8.181-119.224-6.844C111.723 312.393 95.949 114.598 226.381 34.94c-57.778 30.236-106.383 76.251-134.616 134.995-15.555 32.366-25.169 67.461-28.322 103.233-3.096 35.124-2.057 89.302 15.248 121.914 14.041 26.461 56.282 44.399 82.584 56.827 30.992 14.646 64.353 23.901 98.455 27.36 72.499 7.354 146.299-11.793 205.835-53.882 5.028-3.518 47.538-35.526 87.25-9.853"/><path clip-path="url(#b)" fill="#FFF" d="M205.969 189.871c-.579.197-1.194.84-1.363 1.431l-1.413 4.978c-.17.591-.606.674-.974.177l-3.09-4.15c-.364-.493-1.166-.877-1.778-.857l-5.169.193c-.617.024-.826-.365-.471-.87l2.993-4.221c.355-.497.47-1.382.259-1.957l-1.777-4.859c-.211-.576.095-.9.679-.718l4.94 1.544c.586.182 1.461.021 1.942-.357l4.073-3.197c.481-.378.877-.186.888.425l.058 5.179c.006.614.43 1.397.94 1.741l4.297 2.884c.506.339.449.777-.13.975l-4.904 1.659zM253.461 75.815c-.579.197-1.194.84-1.364 1.431l-1.413 4.978c-.17.591-.605.674-.973.177l-3.09-4.15c-.365-.493-1.166-.877-1.778-.857l-5.17.193c-.617.024-.826-.365-.47-.87l2.993-4.221c.355-.497.47-1.382.259-1.957l-1.778-4.859c-.211-.576.095-.9.68-.718l4.94 1.544c.585.182 1.46.021 1.941-.357l4.073-3.197c.481-.378.878-.186.889.425l.058 5.179c.006.614.429 1.397.939 1.741l4.297 2.884c.507.339.449.777-.129.975l-4.904 1.659zM483.529 305.245c-.579.198-1.194.84-1.363 1.431l-1.414 4.978c-.17.592-.604.674-.973.177l-3.091-4.15c-.364-.493-1.165-.877-1.777-.857l-5.17.193c-.617.024-.826-.365-.471-.87l2.993-4.221c.355-.497.471-1.382.259-1.957l-1.777-4.859c-.211-.576.095-.9.68-.718l4.94 1.545c.585.181 1.461.02 1.941-.358l4.073-3.197c.48-.378.877-.186.888.425l.059 5.179c.006.614.429 1.397.939 1.741l4.297 2.884c.506.339.449.777-.13.975l-4.903 1.659zM345.474 352.905c-.599-.125-1.456.115-1.902.537l-3.753 3.564c-.448.422-.864.272-.927-.344l-.545-5.146c-.063-.61-.557-1.349-1.093-1.643l-4.548-2.468c-.543-.293-.524-.734.039-.988l4.726-2.108c.559-.246 1.108-.949 1.22-1.552l.946-5.086c.111-.603.539-.726.95-.271l3.464 3.845c.411.454 1.246.762 1.854.681l5.133-.676c.606-.08.85.287.548.819l-2.588 4.485c-.308.533-.342 1.421-.079 1.977l2.229 4.671c.263.55-.009.896-.608.772l-5.066-1.069zM300.114 221.752c-.206.576-.087 1.458.27 1.958l3.012 4.208c.356.501.149.893-.469.871l-5.171-.169c-.612-.023-1.413.364-1.778.856l-3.071 4.163c-.366.497-.8.418-.974-.174l-1.435-4.972c-.168-.587-.788-1.228-1.37-1.422l-4.907-1.638c-.582-.194-.645-.635-.138-.979l4.287-2.901c.507-.345.927-1.129.931-1.741l.038-5.178c.004-.611.401-.801.886-.429l4.086 3.182c.485.378 1.36.535 1.947.351l4.933-1.563c.581-.185.888.133.682.709l-1.759 4.868zM205.969 115.743c-.579.198-1.194.841-1.363 1.431l-1.413 4.979c-.17.591-.606.673-.974.176l-3.09-4.15c-.364-.493-1.166-.877-1.778-.857l-5.169.193c-.617.024-.826-.365-.471-.869l2.993-4.222c.355-.496.47-1.381.259-1.957l-1.777-4.859c-.211-.576.095-.9.679-.717l4.94 1.544c.586.182 1.461.02 1.942-.358l4.073-3.196c.481-.378.877-.186.888.424l.058 5.179c.006.615.43 1.397.94 1.741l4.297 2.884c.506.339.449.777-.13.975l-4.904 1.659zM394.114 85.799c-.579.198-1.194.84-1.363 1.431l-1.413 4.979c-.171.591-.606.673-.974.176l-3.09-4.15c-.365-.493-1.166-.877-1.778-.857l-5.17.193c-.616.024-.825-.365-.47-.87l2.993-4.221c.355-.497.47-1.381.259-1.957l-1.777-4.859c-.212-.576.095-.9.679-.718l4.94 1.545c.586.181 1.461.02 1.942-.358l4.073-3.197c.481-.378.877-.185.888.425l.058 5.179c.006.615.43 1.397.939 1.741l4.298 2.884c.506.339.449.777-.13.975l-4.904 1.659zM424.37 286.283c-.579.198-1.194.841-1.363 1.432l-1.414 4.978c-.17.591-.605.673-.973.176l-3.09-4.15c-.365-.492-1.166-.877-1.778-.857l-5.17.193c-.616.025-.826-.365-.47-.869l2.993-4.222c.355-.496.47-1.381.259-1.957l-1.778-4.859c-.211-.575.095-.899.68-.717l4.94 1.544c.585.182 1.461.021 1.941-.357l4.074-3.197c.481-.378.877-.186.888.424l.058 5.179c.006.615.429 1.398.939 1.741l4.297 2.884c.507.34.45.778-.129.975l-4.904 1.659zM215.874 268.931c-.579.197-1.194.84-1.363 1.431l-1.414 4.978c-.17.591-.604.674-.973.177l-3.09-4.15c-.365-.493-1.166-.877-1.778-.857l-5.17.193c-.616.024-.826-.365-.47-.87l2.993-4.221c.355-.497.47-1.382.259-1.957l-1.778-4.859c-.211-.576.095-.9.68-.718l4.94 1.544c.585.182 1.46.021 1.941-.357l4.074-3.197c.481-.378.877-.186.888.425l.058 5.179c.006.614.429 1.397.939 1.741l4.297 2.884c.507.339.45.777-.129.975l-4.904 1.659zM370.647 247.031c-.579.198-1.194.84-1.363 1.431l-1.414 4.978c-.17.592-.604.674-.973.177l-3.09-4.15c-.365-.493-1.166-.877-1.778-.857l-5.17.193c-.616.024-.826-.365-.47-.87l2.993-4.221c.355-.497.47-1.381.259-1.957l-1.778-4.859c-.211-.576.095-.9.68-.718l4.94 1.545c.585.181 1.46.02 1.941-.358l4.074-3.197c.481-.378.877-.186.888.425l.058 5.179c.006.615.429 1.397.939 1.741l4.297 2.884c.507.339.45.777-.129.975l-4.904 1.659zM278.362 315.229c-.579.198-1.194.841-1.363 1.431l-1.413 4.979c-.17.591-.606.673-.974.176l-3.09-4.15c-.364-.493-1.166-.877-1.778-.857l-5.169.192c-.617.024-.826-.365-.471-.869l2.993-4.222c.355-.496.47-1.381.259-1.957l-1.777-4.859c-.211-.576.095-.9.679-.717l4.94 1.544c.586.182 1.461.02 1.942-.358l4.073-3.196c.481-.378.877-.186.888.424l.058 5.179c.006.615.43 1.397.94 1.741l4.297 2.884c.506.339.449.777-.13.975l-4.904 1.66zM278.362 139.875c-.579.198-1.194.84-1.363 1.431l-1.413 4.978c-.17.592-.606.674-.974.177l-3.09-4.15c-.364-.493-1.166-.877-1.778-.857l-5.169.193c-.617.024-.826-.365-.471-.87l2.993-4.221c.355-.497.47-1.382.259-1.957l-1.777-4.859c-.211-.576.095-.9.679-.718l4.94 1.544c.586.182 1.461.021 1.942-.357l4.073-3.197c.481-.378.877-.186.888.425l.058 5.179c.006.614.43 1.397.94 1.741l4.297 2.884c.506.339.449.777-.13.975l-4.904 1.659zM455.614 205.553c-.407.457-.627 1.319-.484 1.917l1.213 5.03c.143.598-.196.884-.76.632l-4.731-2.098c-.559-.25-1.446-.191-1.969.127l-4.408 2.708c-.526.324-.899.088-.838-.526l.534-5.148c.066-.607-.269-1.434-.736-1.832l-3.934-3.359c-.467-.398-.36-.83.239-.959l5.062-1.081c.599-.13 1.282-.7 1.516-1.265l1.977-4.786c.233-.565.673-.592.983-.066l2.594 4.483c.307.532 1.06 1.006 1.673 1.055l5.16.401c.607.047.773.456.366.913l-3.457 3.854zM368.679 163.224c-.461-.402-1.326-.612-1.922-.463l-5.016 1.272c-.597.149-.887-.186-.641-.754l2.043-4.754c.244-.562.176-1.448-.149-1.968l-2.757-4.377c-.33-.521-.098-.898.517-.843l5.153.475c.607.058 1.431-.285 1.824-.756l3.314-3.973c.392-.471.826-.369.961.228l1.139 5.049c.137.598.714 1.275 1.282 1.502l4.808 1.923c.568.227.6.666.077.981l-4.453 2.645c-.529.313-.994 1.072-1.036 1.686l-.343 5.164c-.039.608-.447.777-.908.376l-3.893-3.413zM322.271 55.847c-.579.198-1.194.84-1.364 1.431l-1.413 4.978c-.17.592-.604.674-.973.177l-3.09-4.15c-.365-.493-1.166-.877-1.778-.857l-5.17.193c-.617.024-.826-.365-.47-.87l2.992-4.221c.356-.497.471-1.381.26-1.957l-1.778-4.859c-.211-.576.095-.9.68-.718l4.94 1.545c.585.181 1.46.02 1.941-.358l4.073-3.197c.481-.378.878-.186.889.425l.058 5.179c.006.614.429 1.397.939 1.741l4.297 2.884c.507.339.449.777-.129.975l-4.904 1.659z"/><path clip-path="url(#b)" fill="#00AFE2" d="M176.18 79.534c13.267-17.058 29.963-32.247 50.181-44.594-57.779 30.236-106.384 76.251-134.617 134.995-15.555 32.366-25.168 67.461-28.322 103.233-3.096 35.124-2.056 89.302 15.249 121.914 10.043 18.928 34.515 33.493 57.261 44.801-26.794-44.95-42.203-97.475-42.203-153.606 0-80.104 31.354-152.881 82.451-206.743"/><g fill="#20314E"><path d="M54.471 651.676c21.167 0 44.896 13.827 48.31 45.749H74.443c-3.073-12.291-9.902-17.583-19.973-17.583-13.487 0-22.534 13.315-22.534 33.289 0 19.631 9.047 32.776 22.704 32.776 10.072 0 17.754-5.976 19.973-18.949h28.508c-3.755 33.972-26.63 47.457-48.651 47.457-31.07 0-51.896-24.411-51.896-61.113.001-37.044 20.826-61.626 51.897-61.626M165.092 774.586c-31.411 0-52.407-24.582-52.407-61.455s20.996-61.455 52.407-61.455c31.24 0 52.065 24.582 52.065 61.455s-20.825 61.455-52.065 61.455m0-29.191c13.485 0 22.362-13.145 22.362-32.264s-8.877-32.094-22.362-32.094c-13.828 0-23.046 12.975-23.046 32.094s9.218 32.264 23.046 32.264M232.695 772.879V652.357h9.219l50.359 58.043v-57.018h29.533v120.35h-8.535l-51.042-59.065v58.212zM406.822 772.879l-5.292-14.852h-33.971l-5.293 14.852h-30.898v-1.878l45.922-119.325h14.681l45.408 119.325v1.878h-30.557zm-13.656-39.093c-5.634-17.241-6.829-23.387-8.708-33.972-2.389 11.78-3.584 17.413-8.535 33.972h17.243zM503.447 772.708l-15.365-37.386h-11.267v37.386h-29.532V653.382h42.166c24.24 0 40.286 16.901 40.286 42.166-.17 13.656-3.756 24.411-14.34 32.264l20.314 43.36v1.536h-32.262zm-14.17-62.821c7.171 0 11.95-5.974 11.95-15.021 0-8.707-4.779-14.511-11.95-14.511h-12.975v29.532h12.975zM578.392 697.596h31.751v27.313h-31.751v19.461h36.19v28.509h-65.553V653.382h64.187v27.143h-34.824zM677.404 651.676c21.167 0 44.896 13.827 48.31 45.749h-28.337c-3.074-12.291-9.902-17.583-19.973-17.583-13.486 0-22.534 13.315-22.534 33.289 0 19.631 9.048 32.776 22.704 32.776 10.072 0 17.755-5.976 19.973-18.949h28.509c-3.755 33.972-26.63 47.457-48.651 47.457-31.069 0-51.896-24.411-51.896-61.113-.001-37.044 20.826-61.626 51.895-61.626"/></g><g><defs><path id="c" d="M-1016-313.1h2976.38v2012.6H-1016z"/></defs><clipPath id="d"><use xlink:href="#c" overflow="visible"/></clipPath><path clip-path="url(#d)" fill="#ED1459" d="M223.978 888.232c-6.483-.445-11.378-6.063-10.932-12.547.447-6.483 6.064-11.378 12.548-10.932 6.483.446 11.378 6.063 10.931 12.547-.445 6.485-6.065 11.379-12.547 10.932"/><path clip-path="url(#d)" fill="#1D49B8" stroke="#1D49B8" stroke-width="2.835" stroke-miterlimit="10" d="M273.625 848.967c5.002-2.686 9.951-4.738 14.847-6.157 4.896-1.418 9.081-2.128 12.561-2.128 2.193 0 3.892.469 5.096 1.403 1.204.937 1.806 2.25 1.806 3.939 0 1.872-1.112 4.346-3.331 7.425-2.221 3.08-5.284 6.128-9.189 9.146-1.071.846-10.327 6.882-27.768 18.109-5.726 3.744-10.968 8.014-15.73 12.813-4.762 4.799-8.507 9.478-11.235 14.034-2.729 4.56-4.093 8.407-4.093 11.546 0 1.811.588 4.617 1.766 8.421 1.175 3.802 2.299 6.248 3.37 7.334 1.766 1.872 5.269 2.808 10.513 2.808 20.224 0 33.867-3.713 40.93-11.138 1.444-1.509 2.701-3.306 3.771-5.388 1.07-2.083 1.887-4.135 2.448-6.157.563-2.022.843-3.727.843-5.116 0-1.509-.669-2.264-2.006-2.264-.803 0-3.198.619-7.183 1.856-3.986 1.237-8.093 2.369-12.319 3.396-15.516 3.622-26.859 5.826-34.028 6.609 1.337-1.991 2.649-3.621 3.933-4.889 1.284-1.269 2.755-2.49 4.414-3.668 1.657-1.177 2.755-1.977 3.29-2.399 5.778-4.405 13.87-10.277 24.277-17.611 10.405-7.335 17.696-12.752 21.869-16.254 4.173-3.5 7.436-7.335 9.791-11.5 2.354-4.165 3.531-9.114 3.531-14.85 0-4.709-.535-8.903-1.605-12.587-1.123-3.983-1.926-6.624-2.407-7.922-.482-1.298-1.298-2.324-2.448-3.079-1.151-.755-2.929-1.132-5.337-1.132-4.763 0-10.019.619-15.77 1.856-5.752 1.237-10.942 2.747-15.569 4.527-4.629 1.781-8.039 3.547-10.232 5.297-1.874 1.51-3.652 4.061-5.337 7.651-1.686 3.592-3.024 7.47-4.013 11.636-.991 4.165-1.485 7.577-1.485 10.231 0 2.959 1.044 4.438 3.13 4.438.428 0 2.729-.528 6.902-1.585 4.173-1.056 7.169-1.766 8.988-2.128 1.23-.24 2.3-.438 3.211-.588.909-.15 1.565-.363 1.966-.635s.602-.77.602-1.494c0-1.63-1.204-2.716-3.612-3.26-2.407-.543-6.42-.965-12.038-1.268 3.583-3.497 7.877-6.59 12.88-9.278zM367.441 844.032c1.792-1.388 3.491-2.083 5.096-2.083 1.712 0 3.13.801 4.254 2.4 1.123 1.6 1.685 3.848 1.685 6.745 0 4.527-1.031 9.992-3.09 16.39-2.06 6.399-5.029 12.889-8.908 19.468-3.88 6.58-8.386 12.527-13.523 17.838-5.35 5.494-10.42 9.812-15.208 12.949-4.789 3.14-8.467 4.708-11.035 4.708-4.494 0-6.741-3.771-6.741-11.318 0-5.252 1.417-11.636 4.253-19.151 2.835-7.516 7.035-15.287 12.6-23.316 3.423-4.828 6.701-8.843 9.831-12.043 3.13-3.198 5.899-5.673 8.307-7.425 2.407-1.75 5.188-3.531 8.346-5.344l-2.809 6.611c2.835-2.898 5.149-5.039 6.942-6.429zm5.739-18.744c-5.351-1.327-11.757.213-19.221 4.618-7.463 4.407-14.633 10.685-21.508 18.834-6.875 8.15-12.547 17.281-17.014 27.392-4.467 10.111-6.701 19.755-6.701 28.931 0 6.58 1.016 12.33 3.05 17.249 2.033 4.921 4.761 8.708 8.186 11.364 3.423 2.657 7.088 3.984 10.995 3.984 5.028 0 11.476-3.139 19.341-9.418 7.008-5.613 13.228-12.735 18.659-21.369 5.43-8.632 9.657-17.868 12.68-27.708 3.022-9.839 4.534-19.016 4.534-27.526 0-5.614-.575-9.854-1.725-12.723-1.151-2.866-2.984-4.935-5.498-6.202-.375-4.105-2.3-6.579-5.778-7.426z"/><path clip-path="url(#d)" fill="#1D49B8" stroke="#1D49B8" d="M414.912 839.957c-2.783 5.313-5.738 11.124-8.868 17.431-3.13 6.31-5.979 12.541-8.547 18.699-2.568 6.157-4.815 12.346-6.742 18.563-3.799 12.314-5.697 21.4-5.697 27.255 0 3.26.694 5.917 2.086 7.968 1.391 2.054 4.145 4.227 8.266 6.52 1.605.847 2.849 1.209 3.732 1.087.883-.12 1.324-1.056 1.324-2.807 0-1.027-.188-2.565-.562-4.618-.375-2.052-.562-3.229-.562-3.532 0-3.681 1.565-10.639 4.694-20.871 3.13-10.231 7.852-23.226 14.165-38.981 2.354-5.733 4.32-10.503 5.899-14.307 1.578-3.803 2.821-7.183 3.732-10.142.909-2.956 1.364-5.644 1.364-8.059 0-4.405-1.472-9.023-4.414-13.854-3.318 2.053-6.273 4.045-8.868 5.976-2.596 1.933-5.11 3.955-7.544 6.067-2.435 2.113-4.642 4.074-6.621 5.886-1.98 1.811-3.932 3.683-5.859 5.613v7.426c6.635-4.71 12.975-8.481 19.022-11.32zM475.424 893.698c-3.853 6.61-8.963 14.956-15.329 25.037-3.21-.121-5.899 2.204-8.066 6.972-2.166 4.77-3.25 8.12-3.25 10.051 0 2.354.775 3.532 2.328 3.532 2.621 0 5.63-1.721 9.028-5.162 3.397-3.44 6.955-8.134 10.674-14.08 3.719-5.945 7.731-12.781 12.038-20.509 4.306-7.727 11.035-20.041 20.185-36.945 3.263-5.914 4.896-9.084 4.896-9.507 0-1.207-.441-2.188-1.324-2.942s-1.967-1.133-3.251-1.133c-1.82 0-3.866.982-6.139 2.943-2.275 1.963-6.301 6.173-12.079 12.632-2.729 3.078-6.086 6.007-10.071 8.783-3.987 2.777-7.785 4.98-11.396 6.61-3.611 1.63-6.273 2.444-7.985 2.444-2.943 0-4.414-1.418-4.414-4.256 0-1.992.775-4.919 2.327-8.782s3.852-7.576 6.902-11.139c4.066-4.587 8.614-8.602 13.644-12.043 5.028-3.44 9.737-6.187 14.124-8.239 4.387-2.052 7.115-3.079 8.186-3.079.643 0 .964.394.964 1.177 0 1.268-.856 2.868-2.568 4.8-3.104 3.501-4.654 5.613-4.654 6.338 0 .484.16.725.481.725.748 0 2.5-1.116 5.257-3.351 2.755-2.232 5.282-4.723 7.584-7.47 2.3-2.746 3.45-5.085 3.45-7.018 0-1.328-.669-3.199-2.006-5.614-1.338-2.414-3.184-4.618-5.538-6.61s-4.869-2.988-7.543-2.988c-5.084 0-12.119 2.703-21.107 8.104-8.989 5.403-16.867 12.119-23.635 20.147-6.769 8.029-10.152 15.816-10.152 23.361 0 4.105.976 8.361 2.929 12.768 1.953 4.407 4.306 8.104 7.063 11.092 2.755 2.988 5.068 4.482 6.942 4.482 2.568 0 5.47-.92 8.707-2.762 3.237-1.841 6.888-4.421 10.955-7.742 4.064-3.319 8.907-7.545 14.525-12.677-4.604 8.091-8.831 15.44-12.682 22.05z"/>
	</g>
</svg>